<svg width="466" height="466" viewBox="0 0 466 466" fill="none" xmlns="http://www.w3.org/2000/svg">
<path d="M377.743 142.472H362.419C341.286 142.472 324.135 125.558 323.642 104.535L323.624 88.3342C322.382 39.3657 282.345 0.0597229 233.103 0.0597229C183.86 0.0597229 143.805 39.384 142.581 88.3342L142.563 103.622C142.563 125.065 125.175 142.49 103.732 142.49H88.3162C39.366 143.732 0.0595703 183.769 0.0595703 233.029C0.0595703 282.29 39.366 322.345 88.3162 323.569H103.732C124.864 323.569 142.015 340.501 142.508 361.524L142.527 377.725C143.769 426.693 183.806 466 233.048 466C282.29 466 322.345 426.675 323.569 377.725L323.587 350.437V362.437C323.587 340.994 340.976 323.551 362.419 323.551H377.743C426.694 322.309 466 282.272 466 233.011C466 183.75 426.694 143.696 377.743 142.472ZM375.424 271.843C346.821 271.843 323.642 294.966 323.642 323.551H323.587C295.003 323.569 271.843 346.802 271.843 375.387V375.406C271.843 396.849 254.455 414.237 233.011 414.237C211.568 414.237 194.198 396.849 194.18 375.406V375.387C194.18 346.821 171.057 323.606 142.508 323.569H142.362C142.362 294.984 119.184 271.843 90.5993 271.843H90.581C69.1379 271.843 51.7496 254.454 51.7496 233.011C51.7496 211.568 69.1379 194.18 90.5627 194.18H90.581C119.166 194.18 142.325 171.057 142.344 142.472H142.49C171.075 142.454 194.235 119.239 194.235 90.6539V90.6356C194.235 69.1925 211.623 51.8042 233.066 51.8042C254.509 51.8042 271.879 69.1925 271.898 90.6356V90.6539C271.898 119.22 295.021 142.417 323.569 142.454H323.624C323.642 171.038 346.802 194.18 375.387 194.18H375.405C396.848 194.18 414.237 211.568 414.237 233.011C414.237 254.454 396.848 271.843 375.424 271.843Z" fill="#A66731"/>
<path d="M233.011 271.861C254.457 271.861 271.843 254.475 271.843 233.029C271.843 211.583 254.457 194.198 233.011 194.198C211.565 194.198 194.18 211.583 194.18 233.029C194.18 254.475 211.565 271.861 233.011 271.861Z" fill="#A66731"/>
</svg>
