<svg width="141" height="141" viewBox="0 0 141 141" fill="none" xmlns="http://www.w3.org/2000/svg">
<path d="M114.47 43.7487H109.864C103.512 43.7487 98.3561 38.6646 98.2079 32.3452L98.2024 27.4751C97.829 12.7554 85.7942 0.940216 70.9922 0.940216C56.1901 0.940216 44.1497 12.7609 43.7818 27.4751L43.7763 32.0706C43.7763 38.5163 38.5495 43.7542 32.1038 43.7542H27.4699C12.7557 44.1275 0.940369 56.1623 0.940369 70.9699C0.940369 85.7775 12.7557 97.8179 27.4699 98.1858H32.1038C38.4561 98.1858 43.6116 103.275 43.7598 109.595L43.7653 114.465C44.1387 129.184 56.1736 141 70.9757 141C85.7777 141 97.818 129.179 98.1859 114.465L98.1914 106.262V109.869C98.1914 103.424 103.418 98.1803 109.864 98.1803H114.47C129.185 97.8069 141 85.772 141 70.9644C141 56.1569 129.185 44.1165 114.47 43.7487ZM113.773 82.637C105.175 82.637 98.2079 89.5878 98.2079 98.1803H98.1914C89.599 98.1858 82.6372 105.17 82.6372 113.762V113.768C82.6372 120.213 77.4104 125.44 70.9647 125.44C64.519 125.44 59.2976 120.213 59.2921 113.768V113.762C59.2921 105.175 52.3413 98.1967 43.7598 98.1858H43.7159C43.7159 89.5933 36.7487 82.637 28.1562 82.637H28.1507C21.705 82.637 16.4782 77.4101 16.4782 70.9644C16.4782 64.5187 21.705 59.2919 28.1452 59.2919H28.1507C36.7432 59.2919 43.7049 52.3411 43.7104 43.7487H43.7543C52.3468 43.7432 59.3086 36.7649 59.3086 28.1724V28.1669C59.3086 21.7212 64.5355 16.4944 70.9812 16.4944C77.4269 16.4944 82.6482 21.7212 82.6537 28.1669V28.1724C82.6537 36.7594 89.6044 43.7322 98.1859 43.7432H98.2024C98.2079 52.3356 105.17 59.2919 113.762 59.2919H113.768C120.213 59.2919 125.44 64.5187 125.44 70.9644C125.44 77.4101 120.213 82.637 113.773 82.637Z" fill="#A66731"/>
<path d="M70.9646 82.6424C77.4112 82.6424 82.6372 77.4165 82.6372 70.9699C82.6372 64.5233 77.4112 59.2973 70.9646 59.2973C64.5181 59.2973 59.2921 64.5233 59.2921 70.9699C59.2921 77.4165 64.5181 82.6424 70.9646 82.6424Z" fill="#A66731"/>
</svg>
