<svg width="639" height="638" viewBox="0 0 639 638" fill="none" xmlns="http://www.w3.org/2000/svg">
<path d="M396.926 390.614H354.893C296.93 390.614 249.888 344.223 248.535 286.56L248.485 242.123C245.078 107.811 135.264 0 0.200256 0C-134.864 0 -244.729 107.861 -248.086 242.123L-248.136 284.055C-248.136 342.87 -295.829 390.664 -354.644 390.664H-396.926C-531.189 394.07 -639 503.885 -639 638.999C-639 774.114 -531.189 883.978 -396.926 887.335H-354.644C-296.681 887.335 -249.639 933.776 -248.286 991.438L-248.236 1035.88C-244.829 1170.19 -135.014 1278 0.0498047 1278C135.114 1278 244.978 1170.14 248.334 1035.88L248.385 961.029V993.943C248.385 935.128 296.078 887.285 354.893 887.285H396.926C531.188 883.878 638.999 774.063 638.999 638.949C638.999 503.835 531.188 394.02 396.926 390.614ZM390.563 745.508C312.11 745.508 248.535 808.932 248.535 887.335H248.385C169.981 887.385 106.458 951.11 106.458 1029.51V1029.56C106.458 1088.38 58.7645 1136.07 -0.0504761 1136.07C-58.8655 1136.07 -106.509 1088.38 -106.559 1029.56V1029.51C-106.559 951.16 -169.983 887.485 -248.286 887.385H-248.687C-248.687 808.982 -312.261 745.508 -390.664 745.508H-390.714C-449.529 745.508 -497.223 697.814 -497.223 638.999C-497.223 580.184 -449.529 532.491 -390.764 532.491H-390.714C-312.311 532.491 -248.788 469.067 -248.737 390.664H-248.336C-169.933 390.614 -106.408 326.939 -106.408 248.536V248.486C-106.408 189.671 -58.715 141.977 0.0999756 141.977C58.915 141.977 106.558 189.671 106.608 248.486V248.536C106.608 326.889 170.031 390.513 248.334 390.614H248.485C248.535 469.017 312.06 532.491 390.463 532.491H390.513C449.328 532.491 497.021 580.184 497.021 638.999C497.021 697.814 449.328 745.458 390.563 745.508Z" fill="#DCDCDC"/>
<path d="M-0.0444489 745.464C58.7784 745.464 106.464 697.778 106.464 638.955C106.464 580.132 58.7784 532.447 -0.0444489 532.447C-58.8673 532.447 -106.553 580.132 -106.553 638.955C-106.553 697.778 -58.8673 745.464 -0.0444489 745.464Z" fill="#DCDCDC"/>
</svg>
