<svg width="24" height="24" viewBox="0 0 24 24" fill="none" xmlns="http://www.w3.org/2000/svg">
<path fill-rule="evenodd" clip-rule="evenodd" d="M11.4451 9.22313L10.3351 8.11313L12.5551 5.89313C14.0877 4.36054 16.5725 4.36054 18.1051 5.89313C19.6377 7.42572 19.6377 9.91054 18.1051 11.4431L15.8851 13.6631L14.7751 12.5531L16.9951 10.3331C17.9147 9.41358 17.9147 7.92269 16.9951 7.00313C16.0756 6.08358 14.5847 6.08358 13.6651 7.00313L11.4451 9.22313ZM12.5551 14.7731L13.6651 15.8831L11.4451 18.1031C9.91253 19.6357 7.42771 19.6357 5.89512 18.1031C4.36253 16.5705 4.36253 14.0857 5.89512 12.5531L8.11512 10.3331L9.22512 11.4431L7.00512 13.6631C6.08557 14.5827 6.08557 16.0736 7.00512 16.9931C7.92467 17.9127 9.41557 17.9127 10.3351 16.9931L12.5551 14.7731ZM8.67011 14.2181L9.78011 15.3281L15.3301 9.77813L14.2201 8.66813L8.67011 14.2181Z" fill="#02343B"/>
</svg>
