<svg width="28" height="28" viewBox="0 0 28 28" fill="none" xmlns="http://www.w3.org/2000/svg">
<path fill-rule="evenodd" clip-rule="evenodd" d="M13.9998 21.2335L8.1665 7.06685L13.9998 9.56685L19.8332 7.06685L13.9998 21.2335ZM17.3869 9.54832L13.9998 10.9999L10.6128 9.54832L13.9998 17.774L17.3869 9.54832Z" fill="#02343B"/>
<path d="M8.1665 7.06685L7.98157 7.143L7.79507 6.69007L8.24529 6.88302L8.1665 7.06685ZM13.9998 21.2335L14.1848 21.3097L13.9998 21.7588L13.8149 21.3097L13.9998 21.2335ZM13.9998 9.56685L14.0786 9.75068L13.9998 9.78444L13.9211 9.75068L13.9998 9.56685ZM19.8332 7.06685L19.7544 6.88302L20.2046 6.69007L20.0181 7.143L19.8332 7.06685ZM13.9998 10.9999L14.0786 11.1837L13.9998 11.2175L13.9211 11.1837L13.9998 10.9999ZM17.3869 9.54832L17.3081 9.36449L17.7583 9.17154L17.5718 9.62447L17.3869 9.54832ZM10.6128 9.54832L10.4278 9.62447L10.2413 9.17154L10.6916 9.36449L10.6128 9.54832ZM13.9998 17.774L14.1848 17.8502L13.9998 18.2993L13.8149 17.8502L13.9998 17.774ZM8.35144 6.9907L14.1848 21.1574L13.8149 21.3097L7.98157 7.143L8.35144 6.9907ZM13.9211 9.75068L8.08772 7.25068L8.24529 6.88302L14.0786 9.38302L13.9211 9.75068ZM19.912 7.25068L14.0786 9.75068L13.9211 9.38302L19.7544 6.88302L19.912 7.25068ZM13.8149 21.1574L19.6482 6.9907L20.0181 7.143L14.1848 21.3097L13.8149 21.1574ZM13.9211 10.8161L17.3081 9.36449L17.4657 9.73215L14.0786 11.1837L13.9211 10.8161ZM10.6916 9.36449L14.0786 10.8161L13.9211 11.1837L10.534 9.73215L10.6916 9.36449ZM13.8149 17.8502L10.4278 9.62447L10.7977 9.47217L14.1848 17.6979L13.8149 17.8502ZM17.5718 9.62447L14.1848 17.8502L13.8149 17.6979L17.202 9.47217L17.5718 9.62447Z" fill="#02343B"/>
</svg>
