<svg width="116" height="47" viewBox="0 0 116 47" fill="none" xmlns="http://www.w3.org/2000/svg">
<path d="M48.1883 25.4705C48.0384 19.5608 43.2066 14.8171 37.2616 14.8171C31.4158 14.8171 26.6458 19.3933 26.346 25.1641C26.346 25.1641 30.4173 25.7129 33.0646 23.0656C34.1139 22.0164 34.9118 21.0905 37.2572 21.0707C37.2572 21.0707 37.2836 21.0663 37.2748 21.0663C39.856 21.0729 41.9479 23.167 41.9479 25.7526V27.3177H35.0088C29.8376 27.3243 25.6494 31.519 25.6494 36.6903C25.6494 41.8174 29.767 45.9813 34.8744 46.0585L37.0368 46.0563C39.4086 45.9747 41.4431 44.575 42.4307 42.5647C42.4593 42.5162 42.488 42.4655 42.5144 42.4126C43.5019 44.564 45.6732 46.0585 48.1949 46.0585V39.8093V25.4705H48.1883ZM35.022 39.8138C33.2961 39.8138 31.8986 38.414 31.8986 36.6903C31.8986 34.9665 33.2983 33.5668 35.022 33.5668H41.9479V39.8116C41.9479 39.8138 41.9479 39.8138 41.9479 39.816H35.022V39.8138Z" fill="#02343B"/>
<path d="M9.44096 27.3092C7.19039 27.3048 6.20948 25.8852 6.20948 24.2783C6.20948 23.4473 6.69222 21.0358 10.7856 21.0358C12.8752 21.0358 13.9046 21.8381 14.9671 22.8984C17.6145 25.5458 21.7277 25.1071 21.7277 25.1071C21.7277 19.7683 16.6887 14.78 10.7878 14.78C4.19476 14.78 0.00220308 19.3671 0.00220308 24.2805C0.00220308 30.4106 4.33363 33.5275 8.86785 33.5275L12.2867 33.5297C14.5373 33.5341 15.5182 34.9537 15.5182 36.5606C15.5182 37.3916 15.2845 39.8031 10.9421 39.8031C8.85242 39.8031 7.82301 39.0007 6.76055 37.9405C4.1132 35.2931 0 35.7318 0 35.7318C0 41.0705 5.039 46.0588 10.9399 46.0588C17.5329 46.0588 21.7255 41.4717 21.7255 36.5584C21.7255 30.4282 17.394 27.3114 12.8598 27.3114L9.44096 27.3092Z" fill="#02343B"/>
<path d="M54.4482 2.32104V39.8116C54.4482 43.2635 57.2455 46.0607 60.6974 46.0607V8.57019C60.6952 5.11828 57.898 2.32104 54.4482 2.32104Z" fill="#02343B"/>
<path d="M66.9443 14.8171V39.8116C66.9443 43.2635 69.7416 46.0607 73.1935 46.0607V21.0663C73.1935 17.6144 70.3963 14.8171 66.9443 14.8171Z" fill="#02343B"/>
<path d="M101.302 25.4705C101.152 19.5608 96.3206 14.8171 90.3756 14.8171C84.4307 14.8171 79.5967 19.563 79.449 25.4705H79.4424V39.8093C79.4424 43.2613 82.2396 46.0585 85.6915 46.0585V25.7504C85.6915 23.1626 87.79 21.0641 90.3778 21.0641C92.9657 21.0641 95.0642 23.1626 95.0642 25.7504V39.8093C95.0642 43.2613 97.8614 46.0585 101.313 46.0585L101.302 25.4705Z" fill="#02343B"/>
<path d="M114.445 6.86269C115.304 4.78977 114.319 2.41327 112.247 1.55462C110.174 0.69597 107.797 1.68033 106.939 3.75325C106.08 5.82616 107.064 8.20266 109.137 9.06131C111.21 9.91995 113.587 8.9356 114.445 6.86269Z" fill="#02343B"/>
<path d="M70.7238 9.31933C72.9385 8.95989 74.4425 6.87312 74.0831 4.65841C73.7237 2.44369 71.6369 0.939705 69.4222 1.29914C67.2075 1.65857 65.7035 3.74532 66.0629 5.96003C66.4224 8.17475 68.5091 9.67876 70.7238 9.31933Z" fill="#02343B"/>
<path d="M107.559 14.8171V39.8116C107.559 43.2635 110.356 46.0607 113.808 46.0607V21.0663C113.806 17.6144 111.008 14.8171 107.559 14.8171Z" fill="#02343B"/>
</svg>
