<svg width="116" height="47" viewBox="0 0 116 47" fill="none" xmlns="http://www.w3.org/2000/svg">
<path d="M48.1883 25.4707C48.0384 19.561 43.2066 14.8174 37.2616 14.8174C31.4158 14.8174 26.6458 19.3935 26.346 25.1643C26.346 25.1643 30.4173 25.7132 33.0646 23.0658C34.1139 22.0166 34.9118 21.0908 37.2572 21.0709C37.2572 21.0709 37.2836 21.0665 37.2748 21.0665C39.856 21.0731 41.9479 23.1672 41.9479 25.7528V27.3179H35.0088C29.8376 27.3245 25.6494 31.5193 25.6494 36.6905C25.6494 41.8177 29.767 45.9816 34.8744 46.0587L37.0368 46.0565C39.4086 45.975 41.4431 44.5753 42.4307 42.565C42.4593 42.5165 42.488 42.4658 42.5144 42.4129C43.5019 44.5643 45.6732 46.0587 48.1949 46.0587V39.8096V25.4707H48.1883ZM35.022 39.814C33.2961 39.814 31.8986 38.4143 31.8986 36.6905C31.8986 34.9668 33.2983 33.5671 35.022 33.5671H41.9479V39.8118C41.9479 39.814 41.9479 39.814 41.9479 39.8162H35.022V39.814Z" fill="#DCDCDC"/>
<path d="M9.44096 27.3094C7.19039 27.305 6.20948 25.8855 6.20948 24.2785C6.20948 23.4475 6.69222 21.036 10.7856 21.036C12.8752 21.036 13.9046 21.8384 14.9671 22.8987C17.6145 25.546 21.7277 25.1074 21.7277 25.1074C21.7277 19.7686 16.6887 14.7803 10.7878 14.7803C4.19476 14.7803 0.00220308 19.3674 0.00220308 24.2807C0.00220308 30.4109 4.33363 33.5277 8.86785 33.5277L12.2867 33.5299C14.5373 33.5343 15.5182 34.9539 15.5182 36.5608C15.5182 37.3918 15.2845 39.8033 10.9421 39.8033C8.85242 39.8033 7.82301 39.001 6.76055 37.9407C4.1132 35.2934 0 35.732 0 35.732C0 41.0708 5.039 46.0591 10.9399 46.0591C17.5329 46.0591 21.7255 41.472 21.7255 36.5586C21.7255 30.4285 17.394 27.3116 12.8598 27.3116L9.44096 27.3094Z" fill="#DCDCDC"/>
<path d="M54.4482 2.32129V39.8118C54.4482 43.2637 57.2455 46.0609 60.6974 46.0609V8.57044C60.6952 5.11852 57.898 2.32129 54.4482 2.32129Z" fill="#DCDCDC"/>
<path d="M66.9443 14.8174V39.8118C66.9443 43.2637 69.7416 46.0609 73.1935 46.0609V21.0665C73.1935 17.6146 70.3963 14.8174 66.9443 14.8174Z" fill="#DCDCDC"/>
<path d="M101.302 25.4707C101.152 19.561 96.3206 14.8174 90.3756 14.8174C84.4307 14.8174 79.5967 19.5632 79.449 25.4707H79.4424V39.8096C79.4424 43.2615 82.2396 46.0587 85.6915 46.0587V25.7506C85.6915 23.1628 87.79 21.0644 90.3778 21.0644C92.9657 21.0644 95.0642 23.1628 95.0642 25.7506V39.8096C95.0642 43.2615 97.8614 46.0587 101.313 46.0587L101.302 25.4707Z" fill="#DCDCDC"/>
<path d="M114.445 6.86293C115.304 4.79001 114.319 2.41351 112.247 1.55486C110.174 0.696214 107.797 1.68058 106.939 3.75349C106.08 5.82641 107.064 8.2029 109.137 9.06155C111.21 9.9202 113.587 8.93584 114.445 6.86293Z" fill="#DCDCDC"/>
<path d="M70.7238 9.31957C72.9385 8.96014 74.4425 6.87337 74.0831 4.65865C73.7237 2.44394 71.6369 0.939949 69.4222 1.29938C67.2075 1.65882 65.7035 3.74556 66.0629 5.96028C66.4224 8.17499 68.5091 9.679 70.7238 9.31957Z" fill="#DCDCDC"/>
<path d="M107.559 14.8174V39.8118C107.559 43.2637 110.356 46.0609 113.808 46.0609V21.0665C113.806 17.6146 111.008 14.8174 107.559 14.8174Z" fill="#DCDCDC"/>
</svg>
