<svg width="38" height="38" viewBox="0 0 38 38" fill="none" xmlns="http://www.w3.org/2000/svg">
<circle cx="19" cy="19" r="19" fill="#02343B"/>
<path d="M24.1634 15.7688H23.6166C22.8626 15.7688 22.2507 15.1654 22.2331 14.4152L22.2324 13.8372C22.1881 12.09 20.7596 10.6875 19.0026 10.6875C17.2456 10.6875 15.8164 12.0906 15.7727 13.8372L15.7721 14.3827C15.7721 15.1478 15.1517 15.7695 14.3866 15.7695H13.8365C12.09 15.8138 10.6875 17.2423 10.6875 19C10.6875 20.7576 12.09 22.1868 13.8365 22.2305H14.3866C15.1406 22.2305 15.7525 22.8346 15.7701 23.5847L15.7708 24.1628C15.8151 25.91 17.2436 27.3125 19.0006 27.3125C20.7576 27.3125 22.1868 25.9093 22.2305 24.1628L22.2311 23.1891V23.6173C22.2311 22.8522 22.8515 22.2298 23.6166 22.2298H24.1634C25.91 22.1855 27.3125 20.757 27.3125 18.9993C27.3125 17.2417 25.91 15.8131 24.1634 15.7688ZM24.0807 20.3855C23.0601 20.3855 22.2331 21.2106 22.2331 22.2305H22.2311C21.2112 22.2311 20.3849 23.0601 20.3849 24.08V24.0807C20.3849 24.8458 19.7644 25.4662 18.9993 25.4662C18.2342 25.4662 17.6145 24.8458 17.6138 24.0807V24.08C17.6138 23.0607 16.7888 22.2324 15.7701 22.2311H15.7649C15.7649 21.2112 14.9379 20.3855 13.918 20.3855H13.9173C13.1522 20.3855 12.5318 19.7651 12.5318 19C12.5318 18.2349 13.1522 17.6145 13.9167 17.6145H13.9173C14.9373 17.6145 15.7636 16.7894 15.7643 15.7695H15.7695C16.7894 15.7688 17.6158 14.9405 17.6158 13.9206V13.9199C17.6158 13.1548 18.2362 12.5344 19.0013 12.5344C19.7664 12.5344 20.3862 13.1548 20.3868 13.9199V13.9206C20.3868 14.9399 21.2119 15.7675 22.2305 15.7688H22.2324C22.2331 16.7887 23.0594 17.6145 24.0794 17.6145H24.08C24.8451 17.6145 25.4655 18.2349 25.4655 19C25.4655 19.7651 24.8451 20.3849 24.0807 20.3855Z" fill="#DEDEDE"/>
<path d="M18.9998 20.3843C19.765 20.3843 20.3853 19.764 20.3853 18.9988C20.3853 18.2336 19.765 17.6133 18.9998 17.6133C18.2346 17.6133 17.6143 18.2336 17.6143 18.9988C17.6143 19.764 18.2346 20.3843 18.9998 20.3843Z" fill="#DEDEDE"/>
</svg>
