<svg width="28" height="28" viewBox="0 0 28 28" fill="none" xmlns="http://www.w3.org/2000/svg">
<g clip-path="url(#clip0_1023_1345)">
<path fill-rule="evenodd" clip-rule="evenodd" d="M9.86926 19.2047L4.61927 24.4547L3.38183 23.2173L8.63183 17.9673L9.86926 19.2047Z" fill="#DCDCDC"/>
<path fill-rule="evenodd" clip-rule="evenodd" d="M11.2708 7.30407C8.86145 9.71344 8.86145 13.6198 11.2708 16.0292C13.6802 18.4386 17.5866 18.4386 19.9959 16.0292C22.4053 13.6198 22.4053 9.71344 19.9959 7.30407C17.5866 4.89469 13.6802 4.89469 11.2708 7.30407ZM10.0334 6.06663C6.94059 9.15942 6.94059 14.1738 10.0334 17.2666C13.1262 20.3594 18.1406 20.3594 21.2334 17.2666C24.3262 14.1738 24.3262 9.15942 21.2334 6.06663C18.1406 2.97384 13.1262 2.97384 10.0334 6.06663Z" fill="#DCDCDC"/>
</g>
<defs>
<clipPath id="clip0_1023_1345">
<rect width="28" height="28" fill="white"/>
</clipPath>
</defs>
</svg>
